<?xml version="1.0" encoding="UTF-8"?>
<svg fill="none" viewBox="0 0 631 379" xmlns="http://www.w3.org/2000/svg">
<g clip-path="url(#a)">
<path d="m317.52 379c171.1 0 309.81-10.143 309.81-22.654 0-12.512-138.7-22.654-309.81-22.654s-309.81 10.142-309.81 22.654c0 12.511 138.7 22.654 309.81 22.654z" fill="#F2F2F2"/>
<path d="m305.65 108.34c-50.475 0-86.716 35.77-86.716 119.23 0 94.591 36.241 119.63 86.716 119.63 50.476 0 88.876-27.424 88.876-119.63 0-98.566-38.4-119.23-88.876-119.23zm0.332 207.46c-34.961 0-53.225-22.655-53.225-88.171 0-57.809 19.012-88.294 53.973-88.294s53.973 20.025 53.973 88.294c0 63.864-19.76 88.171-54.721 88.171z" fill="#2F2E41"/>
<path d="m188.71 281.23h-20.869v-67.881c0-3.605-1.297-7.063-3.605-9.613-2.308-2.549-5.439-3.981-8.703-3.981h-4.89c-1.616 0-3.217 0.351-4.71 1.034-1.493 0.684-2.85 1.685-3.993 2.947-1.142 1.263-2.049 2.761-2.668 4.411-0.618 1.649-0.936 3.417-0.936 5.202v67.881h-58.866c-1.211 0-2.4015-0.345-3.4559-1.003s-1.9369-1.606-2.562-2.752c-0.6251-1.145-0.9714-2.45-1.0055-3.787s0.2453-2.661 0.811-3.844l62.303-130.25c0.777-1.624 1.248-3.405 1.384-5.236 0.137-1.83-0.064-3.672-0.59-5.414-0.526-1.743-1.366-3.349-2.469-4.723-1.104-1.374-2.448-2.487-3.951-3.271l-3.678-1.918c-2.856-1.49-6.121-1.71-9.12-0.615-2.998 1.096-5.501 3.422-6.99 6.499l-75.987 157.01c-1.2939 2.674-1.9709 5.659-1.9709 8.69 0 2.421 0.4317 4.818 1.2704 7.055 0.8387 2.236 2.068 4.268 3.6177 5.98s3.3895 3.07 5.4142 3.996c2.0248 0.926 4.195 1.403 6.3866 1.403h89.459v42.924c0 2.14 0.381 4.259 1.123 6.236 0.741 1.977 1.828 3.773 3.198 5.286 1.369 1.513 2.996 2.714 4.786 3.533 1.789 0.819 3.708 1.24 5.645 1.24 1.938 0 3.856-0.421 5.646-1.24s3.416-2.02 4.786-3.533 2.456-3.309 3.198-5.286c0.741-1.977 1.123-4.096 1.123-6.236v-42.924h20.869c3.341 0 6.544-1.465 8.906-4.074 2.361-2.609 3.688-6.147 3.688-9.836 0-3.69-1.327-7.228-3.688-9.836-2.362-2.609-5.565-4.075-8.906-4.075z" fill="#F6009B"/>
<path d="m575.16 281.23h-20.87v-67.881c0-3.605-1.297-7.063-3.605-9.613-2.308-2.549-5.438-3.981-8.702-3.981h-4.891c-1.616 0-3.216 0.351-4.71 1.034-1.493 0.684-2.85 1.685-3.992 2.947-1.143 1.263-2.05 2.761-2.668 4.411-0.619 1.649-0.937 3.417-0.937 5.202v67.881h-58.866c-1.211 0-2.402-0.345-3.456-1.003s-1.937-1.606-2.562-2.752c-0.625-1.145-0.972-2.45-1.006-3.787s0.246-2.661 0.811-3.844l62.304-130.25c0.776-1.624 1.247-3.405 1.384-5.236 0.136-1.83-0.065-3.672-0.591-5.414-0.525-1.743-1.365-3.349-2.469-4.723-1.103-1.374-2.448-2.487-3.951-3.271l-3.678-1.918c-2.856-1.49-6.121-1.71-9.119-0.615-2.999 1.096-5.502 3.422-6.99 6.499l-75.987 157.01c-1.294 2.674-1.971 5.659-1.971 8.69 0 4.889 1.758 9.578 4.888 13.035s7.374 5.399 11.801 5.399h89.458v42.924c0 4.322 1.554 8.466 4.321 11.522 2.766 3.056 6.519 4.773 10.431 4.773 3.913 0 7.665-1.717 10.432-4.773s4.321-7.2 4.321-11.522v-42.924h20.87c3.34 0 6.543-1.465 8.905-4.074 2.361-2.609 3.688-6.147 3.688-9.836 0-3.69-1.327-7.228-3.688-9.836-2.362-2.609-5.565-4.075-8.905-4.075z" fill="#F6009B"/>
<path d="m194.47 273.28h-20.869v-67.881c0-1.785-0.319-3.553-0.937-5.202-0.619-1.65-1.525-3.148-2.668-4.411-1.143-1.262-2.5-2.263-3.993-2.946-1.493-0.684-3.094-1.035-4.71-1.035h-4.89c-3.264 0-6.395 1.432-8.703 3.981-2.308 2.55-3.605 6.008-3.605 9.613v67.881h-58.866c-1.211 0-2.4015-0.345-3.4559-1.003s-1.9369-1.606-2.562-2.752c-0.625-1.145-0.9714-2.45-1.0055-3.787s0.2453-2.661 0.811-3.844l62.303-130.25c0.777-1.624 1.248-3.405 1.384-5.235 0.137-1.831-0.064-3.673-0.59-5.415-0.526-1.743-1.366-3.349-2.469-4.723-1.104-1.374-2.448-2.486-3.951-3.271l-3.678-1.918c-2.856-1.49-6.121-1.71-9.12-0.614-2.998 1.095-5.501 3.421-6.99 6.498l-75.987 157.01c-1.294 2.674-1.971 5.659-1.971 8.691 0 4.888 1.7583 9.577 4.8881 13.034s7.3746 5.399 11.801 5.399h89.458v42.924c0 2.14 0.382 4.259 1.123 6.236 0.742 1.977 1.828 3.773 3.198 5.286 1.37 1.514 2.997 2.714 4.786 3.533 1.79 0.819 3.709 1.24 5.646 1.24 3.913 0 7.665-1.717 10.432-4.773 2.766-3.055 4.321-7.2 4.321-11.522v-42.924h20.869c1.654 0 3.292-0.359 4.82-1.059 1.528-0.699 2.916-1.723 4.085-3.015 1.17-1.292 2.097-2.825 2.73-4.513 0.633-1.687 0.959-3.496 0.959-5.323s-0.326-3.636-0.959-5.323c-0.633-1.688-1.56-3.222-2.73-4.513-1.169-1.292-2.557-2.317-4.085-3.016s-3.166-1.059-4.82-1.059z" stroke="#3F3D56" stroke-miterlimit="10"/>
<path d="m585.95 273.28h-20.87v-67.881c0-3.605-1.297-7.063-3.605-9.613-2.308-2.549-5.438-3.981-8.703-3.981h-4.89c-1.616 0-3.216 0.351-4.71 1.035-1.493 0.683-2.85 1.684-3.992 2.946-1.143 1.263-2.05 2.761-2.668 4.411-0.619 1.649-0.937 3.417-0.937 5.202v67.881h-58.866c-1.211 0-2.402-0.345-3.456-1.003s-1.937-1.606-2.562-2.752c-0.625-1.145-0.972-2.45-1.006-3.787s0.246-2.661 0.811-3.844l62.303-130.25c0.777-1.624 1.248-3.405 1.385-5.235 0.136-1.831-0.065-3.673-0.591-5.415-0.525-1.743-1.366-3.349-2.469-4.723-1.104-1.374-2.448-2.486-3.951-3.271l-3.678-1.918c-2.856-1.49-6.121-1.71-9.119-0.614-2.999 1.095-5.502 3.421-6.991 6.498l-75.986 157.01c-1.294 2.674-1.971 5.659-1.971 8.691 0 4.888 1.758 9.577 4.888 13.034s7.374 5.399 11.801 5.399h89.458v42.924c0 4.322 1.554 8.467 4.321 11.522 2.766 3.056 6.519 4.773 10.431 4.773 3.913 0 7.665-1.717 10.432-4.773 2.767-3.055 4.321-7.2 4.321-11.522v-42.924h20.87c1.653 0 3.291-0.359 4.819-1.059 1.528-0.699 2.916-1.723 4.086-3.015 1.169-1.292 2.097-2.825 2.73-4.513 0.633-1.687 0.958-3.496 0.958-5.323 0-3.689-1.327-7.228-3.688-9.836-2.362-2.609-5.565-4.075-8.905-4.075z" stroke="#3F3D56" stroke-miterlimit="10"/>
<path d="m317.16 101.19c-50.476 0-86.717 35.77-86.717 119.23 0 94.591 36.241 119.63 86.717 119.63s88.876-27.424 88.876-119.63c0-98.566-38.4-119.23-88.876-119.23zm0.332 207.46c-34.961 0-53.226-22.655-53.226-88.171 0-57.809 19.013-88.294 53.974-88.294 34.96 0 53.973 20.025 53.973 88.294 0 63.864-19.761 88.171-54.721 88.171z" stroke="#3F3D56" stroke-miterlimit="10"/>
<path d="m276.7 20.209c4.185 0 7.577-3.7471 7.577-8.3692 0-4.6222-3.392-8.3692-7.577-8.3692s-7.577 3.747-7.577 8.3692c0 4.6221 3.392 8.3692 7.577 8.3692z" fill="#2F2E41"/>
<path d="m295.19 60.83c11.737 0 21.253-13.617 21.253-30.415s-9.516-30.415-21.253-30.415-21.252 13.617-21.252 30.415 9.515 30.415 21.252 30.415z" fill="#2F2E41"/>
<path d="m295.19 51.644c-10.646 0-19.464-11.204-21.011-25.822-0.161 1.5245-0.242 3.0581-0.241 4.5929 0 16.798 9.515 30.415 21.252 30.415s21.253-13.617 21.253-30.415c0-1.5348-0.081-3.0684-0.242-4.5929-1.547 14.618-10.364 25.822-21.011 25.822z" fill="#000" opacity=".1"/>
<path d="m338.43 119.49c-0.456 2.072-2.424 3.731-4.603 4.89-4.582 2.437-10.234 3.165-15.717 3.409-1.398 0.094-2.801 0.065-4.196-0.086-2.702-0.289-5.237-1.576-7.194-3.653-0.14-0.101-0.255-0.239-0.333-0.402-0.078-0.162-0.118-0.344-0.115-0.528 2e-3 -0.185 0.047-0.365 0.13-0.525s0.201-0.294 0.343-0.39c2.919-3.541 7.789-5.713 12.696-7.276 3.72-1.186 10.208-4.256 14.265-3.842 3.931 0.402 5.301 5.787 4.724 8.403z" fill="#3F3D56"/>
<path d="m338.43 119.49c-0.456 2.072-2.424 3.731-4.603 4.89-4.582 2.437-10.234 3.165-15.717 3.409-1.398 0.094-2.801 0.065-4.196-0.086-2.702-0.289-5.237-1.576-7.194-3.653-0.14-0.101-0.255-0.239-0.333-0.402-0.078-0.162-0.118-0.344-0.115-0.528 2e-3 -0.185 0.047-0.365 0.13-0.525s0.201-0.294 0.343-0.39c2.919-3.541 7.789-5.713 12.696-7.276 3.72-1.186 10.208-4.256 14.265-3.842 3.931 0.402 5.301 5.787 4.724 8.403z" fill="#000" opacity=".1"/>
<path d="m280.17 104c-1.399 3.028-1.652 6.545-0.704 9.779 0.964 3.21 2.769 6.031 5.185 8.107 5.929 5.249 14.089 5.972 21.687 5.899 6.658-0.064 13.308-0.568 19.912-1.508 2.214-0.216 4.389-0.774 6.462-1.657 2.48-1.185 4.659-3.359 5.542-6.179 0.882-2.821 0.256-6.275-1.841-8.157-1.842-1.654-4.383-1.882-6.753-2.039l-13.559-0.9c1.339-1.498 3.123-2.345 4.754-3.433 2.165-1.445 3.603-3.87 5.177-6.056 2.424-3.201 5.063-6.1971 7.892-8.9633 0.441 2.7962 2.043 5.0924 3.928 7.0217 1.884 1.9294 4.057 3.4826 6.016 5.3196 4.745 4.449 8.161 10.488 13.151 14.596 3.433-0.996 6.642-2.766 9.426-5.197l-1.94-3.881c-0.161-0.399-0.413-0.746-0.731-1.007-0.549-0.373-1.256-0.181-1.894-0.286-1.703-0.282-2.447-2.455-3.116-4.209-1.835-4.8143-5.349-8.5497-8.35-12.587-2.215-2.9804-4.18-6.1772-5.871-9.5509-1.008-2.0121-1.931-4.1071-3.299-5.8405-1.368-1.7335-3.285-3.0963-5.367-3.1012-1.84-0.0043-3.537 1.0272-5.118 2.0649-4.817 3.1606-9.452 6.6485-13.878 10.444-2.317 1.9862-4.618 4.0846-7.335 5.3026-1.144 0.5127-2.35 0.8631-3.448 1.487-1.922 1.0927-3.381 2.9415-4.951 4.5826-5.602 5.8535-13.271 9.6462-20.977 9.9492z" fill="#3F3D56"/>
<path d="m308.52 62.34c-0.063 1.7893-0.407 3.5527-1.018 5.2114-0.31 0.8272-0.77 1.5752-1.353 2.1971-0.583 0.622-1.275 1.1047-2.034 1.418-1.078 0.319-2.209 0.3595-3.303 0.1183-0.954-0.1101-1.874-0.4561-2.691-1.0124-1.271-0.9655-1.905-2.6884-2.136-4.3745-0.231-1.684-0.128-3.4048-0.275-5.1011-0.144-1.3701-0.38-2.7265-0.706-4.058-0.1-0.443-0.202-0.8839-0.302-1.3248-0.098-0.4409-0.194-0.8818-0.282-1.3227-0.082-0.4144-0.157-0.8308-0.222-1.2493-0.054-0.3531-0.102-0.7083-0.137-1.0655-0.032-1.0591-0.192-2.1086-0.475-3.1211-0.265-0.6567-0.598-1.2778-0.99-1.8515-0.169-0.2653-0.331-0.5307-0.481-0.8063-0.433-0.7161-0.634-1.5728-0.571-2.4311 0.018-0.1327 0.047-0.2632 0.087-0.3899 0.015-0.049 0.031-0.0979 0.05-0.1449 0.166-0.0499 0.319-0.1438 0.445-0.2737 0.126-0.1298 0.221-0.2916 0.277-0.4714 0.064-0.3862 0.034-0.7841-0.086-1.1533-0.139-0.516-0.328-1.0137-0.564-1.484-0.155-0.3103-0.682-0.8696-0.686-1.2248-7e-3 -0.7145 1.257-1.2901 1.769-1.5718 1.562-0.8643 3.305-1.2545 5.049-1.1309 1.118 0.0837 2.33 0.4634 2.947 1.4983 0.555 0.9329 0.481 2.1413 0.717 3.2252 0.025 0.1576 0.086 0.3057 0.176 0.4307 0.121 0.1214 0.272 0.1985 0.434 0.2205 0.274 0.0601 0.555 0.0726 0.832 0.0367h2e-3c0.073-0.0064 0.146-0.018 0.218-0.0347 0.432-0.088 0.84-0.2826 1.194-0.5695 0.229-0.0673 0.46-0.1225 0.693-0.1653 9e-3 -0.0011 0.018-0.0031 0.027-0.0061 0.926 3.2272 1.046 6.6871 1.804 9.9736 0.375 1.635 0.913 3.2497 0.989 4.9317 5e-3 0.0735 7e-3 0.149 9e-3 0.2245 0.011 0.541-0.028 1.086-7e-3 1.6249 7e-3 0.2427 0.031 0.4843 0.074 0.7226 0.082 0.3833 0.186 0.7609 0.308 1.1309l6e-3 0.0183c0.035 0.1184 0.068 0.2389 0.096 0.3593 0.02 0.0878 0.039 0.1735 0.053 0.2613l2e-3 0.0061c0.137 0.902 0.158 1.8209 0.061 2.7292z" fill="#FBBEBE"/>
<path d="m295.56 41.234c6.022 0 10.903-5.392 10.903-12.044 0-6.6514-4.881-12.043-10.903-12.043s-10.904 5.392-10.904 12.043c0 6.6515 4.882 12.044 10.904 12.044z" fill="#FBBEBE"/>
<path d="m364.78 94.809c-0.316-3.2857-1.373-6.4314-3.075-9.1489 0.283 1.8575 0.566 3.7144 0.85 5.5706-0.353 0.1128-0.728 0.1094-1.079-0.0099s-0.663-0.3493-0.898-0.6617c-0.459-0.6332-0.81-1.3532-1.037-2.1249-1.239-3.3967-2.858-6.6082-4.821-9.5593-6.942-0.6389-13.803-3.8172-19.908-7.5221-6.105-3.7028-11.82-8.1426-17.844-12.003-1.045-0.6974-2.133-1.3113-3.257-1.8372-1.885-0.8349-4.001-1.2676-5.788-2.2495-0.12-0.0653-0.24-0.1347-0.358-0.2061-0.404-0.2426-0.786-0.5262-1.142-0.8472-0.193-0.1725-0.375-0.358-0.547-0.5552-0.892-1.1458-1.599-2.4521-2.09-3.8621-0.959-2.3433-1.301-5.1705-2.259-7.5139 0.44-0.4542 0.935-0.8395 1.47-1.1451h1e-3c0.078-0.0449 0.156-0.0878 0.235-0.1286 0.379-0.1971 0.773-0.3562 1.177-0.4756 0.229-0.0674 0.46-0.1225 0.693-0.1654 0.01-1e-3 0.019-0.0031 0.028-0.0061 1.08-0.1943 2.186-0.0977 3.225 0.2817 1.519 0.5675 2.8 1.7004 4.077 2.772 2.074 1.6144 4.064 3.3577 5.96 5.2216 1.053 1.1145 2.014 2.3393 3.147 3.3518 0.941 0.8025 1.934 1.529 2.97 2.1739 6.13 4.0335 12.26 8.0664 18.391 12.099 2.076 1.3656 4.153 2.7312 6.182 4.1764 3.083 2.1964 6.054 4.5765 9.024 6.9546 1.75 1.4003 3.5 2.8013 5.249 4.203 0.573 0.4043 1.077 0.9186 1.487 1.5187 0.362 0.6813 0.588 1.4409 0.66 2.227 0.439 3.176 0.191 6.4216-0.723 9.4715z" fill="#FBBEBE"/>
<path d="m311.23 71.397c-0.736 3.6437-4.07 5.8462-5.812 9.0469-2.166 3.9723-1.283 8.5897-0.47 13.14-1.486 1.4146-2.972 2.8292-4.459 4.2438-0.821 0.7777-1.641 1.5595-2.525 2.2472-1.288 0.953-2.634 1.807-4.028 2.556-1.316 0.747-2.632 1.495-3.948 2.243-1.223 0.76-2.519 1.367-3.864 1.809-2.593 0.735-5.346 0.22-7.911-0.631-0.303-0.088-0.594-0.219-0.865-0.39-0.16-0.105-0.3-0.245-0.411-0.41-0.252-0.501-0.344-1.082-0.26-1.647 0.26-4.7688 1.316-9.4372 2.367-14.071 0.562-2.7799 1.318-5.5077 2.26-8.159 0.925-2.2718 1.987-4.4718 3.181-6.5851 1.317-2.6589 2.878-5.1616 4.657-7.469 0.866-0.8881 1.595-1.9264 2.158-3.0741 0.657-1.6535 0.403-3.5498 0.536-5.3502 0.102-1.3527 0.427-2.6734 0.96-3.8968v-2e-3c0.284-0.659 0.627-1.2853 1.023-1.8698 0.18 0.4613 0.359 0.9219 0.538 1.3819 0.118 0.3021 0.235 0.6036 0.351 0.9043 0.152 0.3879 0.302 0.7743 0.451 1.1595 0.431 1.1063 0.861 2.212 1.29 3.317 0.464 1.3918 1.125 2.6933 1.959 3.856 0.381 0.5953 0.895 1.0713 1.493 1.3815 0.597 0.3102 1.257 0.4439 1.915 0.3882 0.659-0.0557 1.292-0.299 1.84-0.7062 0.548-0.4071 0.99-0.9642 1.285-1.6167 0.621-1.2181 1.071-2.5334 1.334-3.9009 0.365-1.665 0.415-3.3952 0.148-5.0827-0.445-3.2497-1.697-6.5688-2.606-9.5879-0.37-1.0066-0.584-2.0748-0.634-3.1599 2e-3 -0.1219 0.013-0.2434 0.034-0.3633 5e-3 -0.0306 0.011-0.0633 0.016-0.0939 0.379-0.197 0.773-0.3562 1.177-0.4756 0.23-0.0674 0.461-0.1225 0.693-0.1654 0.801 4.7848 1.602 9.5695 2.405 14.354 0.018 0.1123 0.039 0.2246 0.057 0.3389 0.115 0.6859 0.231 1.3717 0.36 2.0555 0.117 0.6206 0.243 1.2391 0.383 1.8535l6e-3 0.0184c0.048 0.2082 0.097 0.4144 0.149 0.6205l2e-3 0.0062c0.142 0.5634 0.301 1.1227 0.481 1.6738 1.086 3.3211 2.98 6.6647 2.284 10.112z" fill="#F6009B"/>
<path d="m355.48 122.6c-0.034 0.702 0.089 1.403 0.359 2.04 0.682 1.377 2.319 1.69 3.736 1.819 8.277 0.752 16.603 0.471 24.823-0.835 0.446-0.034 0.879-0.182 1.264-0.433 1.168-0.905 0.448-3.111-0.828-3.817s-2.791-0.536-4.191-0.842c-1.391-0.387-2.715-1.021-3.922-1.879-2.839-1.802-5.637-3.68-8.394-5.636-1.641-1.164-3.578-2.406-5.427-1.716-5.007 1.871-7.453 5.334-7.42 11.299z" fill="#3F3D56"/>
<path d="m294.47 53.836v2e-3c-0.013 0.0858-0.026 0.1695-0.043 0.2532-0.02 0.1388-0.044 0.2796-0.068 0.4184-0.229 1.2962-0.51 2.5863-0.834 3.8682-0.887 3.5416-2.075 7.026-3.254 10.46-3.164 9.2061-6.328 18.413-9.493 27.62-0.799 2.3189-1.595 4.64-2.503 6.912-0.303 0.757-0.615 1.52-0.925 2.292-1.113 2.762-2.181 5.614-2.536 8.553-0.331 1.935-0.369 3.916-0.113 5.865 0.355 1.927 1.414 3.809 3.072 4.521 0.809 0.349 1.968 0.817 1.746 1.745-0.12 0.511-0.645 0.76-1.116 0.845-0.622 0.11-1.259 0.067-1.864-0.126-0.606-0.192-1.166-0.53-1.64-0.988-0.885-0.868-1.565-2.217-2.742-2.362-0.815-0.098-1.566 0.441-2.312 0.819-3.046 1.537-6.594 0.461-9.793-0.631 0.251-1.431 1.552-2.374 2.844-2.66 1.292-0.288 2.628-0.084 3.946-0.122 0.421 0.025 0.84-0.094 1.199-0.341 0.321-0.326 0.547-0.752 0.647-1.221 0.848-2.778 1.48-5.631 1.887-8.528 0.425-3.028 0.602-6.102 1.208-9.092 0.471-2.3333 1.2-4.593 1.824-6.8833 1.208-4.7156 2.2-9.4955 2.972-14.322 0.39-2.005 0.67-4.0344 0.837-6.0769 0.105-1.6942 0.055-3.3967 0.203-5.0848 0.248-2.1963 0.663-4.3656 1.24-6.4851 0.566-2.3127 1.131-4.6241 1.695-6.9342 0.837-3.4191 1.735-6.9709 3.857-9.6286 0.737-0.9357 1.64-1.6942 2.653-2.2286s2.115-0.8333 3.237-0.8782c0.42-6e-4 0.84 0.0494 1.251 0.149 0.068 0.0183 0.136 0.0367 0.205 0.0571 0.448 0.1293 0.877 0.3258 1.277 0.5838 0.654-0.4593 0.987-0.298 1.421 0.4103 0.381 0.7496 0.56 1.6036 0.517 2.4618 0.037 2.2651-0.131 4.5285-0.502 6.7566z" fill="#FBBEBE"/>
<path d="m295.19 56.543-0.028 0.0306-0.149 0.1654-1.486 1.6391-0.728-3.3783-2.497-11.582c0.421-6e-4 0.84 0.0493 1.251 0.149 0.018-0.1327 0.047-0.2633 0.087-0.3899l0.118 0.447 0.846 3.1803 1.603 6.0381 0.264 0.9941v2e-3l0.719 2.7047z" fill="#F6009B"/>
<path d="m304.62 19.593c-2e-3 1.0725-0.194 2.1342-0.567 3.1244s-0.919 1.8895-1.607 2.6465c-0.249 0.2755-0.516 0.5306-0.799 0.7631-1.275 1.0619-2.828 1.6367-4.425 1.6375h-8.866c-1.959-0.0034-3.837-0.8653-5.222-2.3967-1.384-1.5313-2.161-3.6068-2.161-5.7708 0-2.1639 0.777-4.2395 2.161-5.7708 1.385-1.5313 3.263-2.3933 5.222-2.3966h8.866c1.959 0.0056 3.837 0.8672 5.223 2.3967s2.168 3.6027 2.175 5.7667z" fill="#2F2E41"/>
<path d="m312.93 20.209c4.184 0 7.577-3.7471 7.577-8.3692 0-4.6222-3.393-8.3692-7.577-8.3692-4.185 0-7.577 3.747-7.577 8.3692 0 4.6221 3.392 8.3692 7.577 8.3692z" fill="#2F2E41"/>
<path d="m312.74 3.4702c-0.093 0-0.185 0.00408-0.277 0.00774 1.96 0.07871 3.816 0.99411 5.177 2.5536 1.362 1.5595 2.123 3.6415 2.123 5.8079 0 2.1664-0.761 4.2484-2.123 5.8078-1.361 1.5595-3.217 2.4749-5.177 2.5536 0.092 0.0037 0.184 0.0078 0.277 0.0078 2.01 0 3.937-0.8818 5.358-2.4513 1.421-1.5696 2.219-3.6983 2.219-5.9179 0-2.2197-0.798-4.3484-2.219-5.918s-3.348-2.4513-5.358-2.4513z" fill="#000" opacity=".1"/>
<path d="m276.7 3.4702c0.093 0 0.185 0.00408 0.277 0.00774-1.96 0.07871-3.816 0.99411-5.177 2.5536-1.362 1.5595-2.122 3.6415-2.122 5.8079 0 2.1664 0.76 4.2484 2.122 5.8078 1.361 1.5595 3.217 2.4749 5.177 2.5536-0.092 0.0037-0.184 0.0078-0.277 0.0078-2.008-2e-3 -3.934-0.8846-5.353-2.4539-1.42-1.5694-2.217-3.697-2.217-5.9153 0-2.2184 0.797-4.346 2.217-5.9154 1.419-1.5693 3.345-2.4519 5.353-2.4539z" fill="#000" opacity=".1"/>
<path d="m301.64 26.127c-1.275 1.0619-2.828 1.6367-4.425 1.6375h-8.866c-1.597-8e-4 -3.151-0.5756-4.426-1.6375h17.717z" fill="#000" opacity=".1"/>
<path d="m358.9 86.77s1.91 6.0795 3.658 4.4608l-1.394-7.9467-2.264 3.4859z" fill="#FBBEBE"/>
<path d="m591.34 272.17c1.779 0.714 3.684 0.962 5.565 0.725 1.881-0.238 3.686-0.955 5.273-2.094 1.587-1.14 2.913-2.671 3.873-4.473s1.528-3.826 1.66-5.912c0.131-2.086-0.179-4.177-0.904-6.109-0.725-1.931-1.847-3.65-3.276-5.021-1.43-1.371-3.128-2.356-4.961-2.879-1.833-0.522-3.751-0.567-5.602-0.131l0.306 6.949-2.977-5.955c-2.921 1.516-5.178 4.251-6.274 7.604-0.39 1.175-0.626 2.404-0.703 3.652-0.188 2.928 0.493 5.844 1.94 8.306 1.448 2.462 3.582 4.336 6.08 5.338z" fill="#57B894"/>
<path d="m606.07 352.77c-1.05-5.91 3.503-11.149 8-14.555 4.497-3.405 9.752-6.751 11.287-12.531 2.205-8.306-4.364-15.913-9.477-22.472-3.793-4.869-7.051-10.216-9.704-15.931-1.064-2.292-2.042-4.687-2.321-7.244-0.404-3.682 0.667-7.345 1.746-10.857 3.594-11.7 7.437-23.301 11.528-34.804" stroke="#3F3D56" stroke-miterlimit="10"/>
<path d="m591.84 270.38c1.779 0.715 3.684 0.963 5.565 0.726 1.881-0.238 3.686-0.955 5.273-2.094 1.587-1.14 2.913-2.671 3.873-4.473s1.528-3.826 1.659-5.912c0.132-2.086-0.178-4.177-0.903-6.109-0.725-1.931-1.847-3.65-3.276-5.021-1.43-1.371-3.128-2.356-4.961-2.879-1.833-0.522-3.751-0.567-5.602-0.131l0.306 6.949-2.977-5.956c-2.921 1.517-5.178 4.252-6.274 7.605-0.39 1.175-0.626 2.404-0.703 3.652-0.188 2.928 0.493 5.844 1.94 8.306 1.448 2.462 3.582 4.336 6.08 5.337z" stroke="#3F3D56" stroke-miterlimit="10"/>
<path d="m604.58 231.97c0.698-2.128 1.87-4.027 3.407-5.524 1.538-1.496 3.392-2.54 5.391-3.037l1.006 6.606 1.866-6.938c2.591 0.042 5.102 0.993 7.172 2.715 2.069 1.721 3.59 4.125 4.342 6.864 0.752 2.738 0.697 5.67-0.157 8.372-0.855 2.702-2.465 5.033-4.598 6.659-2.132 1.625-4.677 2.459-7.267 2.383-2.59-0.077-5.091-1.061-7.142-2.809-2.051-1.749-3.546-4.173-4.268-6.921-0.723-2.749-0.636-5.68 0.248-8.37z" fill="#57B894"/>
<path d="m605.25 229.59c0.698-2.128 1.87-4.028 3.407-5.524 1.538-1.496 3.391-2.541 5.391-3.038l1.006 6.607 1.866-6.939c2.591 0.043 5.102 0.993 7.172 2.715 2.069 1.722 3.59 4.126 4.342 6.864 0.752 2.739 0.697 5.671-0.158 8.372-0.854 2.702-2.464 5.034-4.597 6.659-2.132 1.625-4.677 2.46-7.267 2.383-2.591-0.076-5.092-1.06-7.142-2.809-2.051-1.749-3.546-4.173-4.268-6.921-0.723-2.748-0.636-5.679 0.248-8.369z" stroke="#3F3D56" stroke-miterlimit="10"/>
<path d="m613.73 303.34c2.822 1.131 5.921 1.075 8.708-0.156 2.787-1.232 5.066-3.553 6.402-6.521 1.337-2.968 1.639-6.376 0.847-9.574s-2.621-5.962-5.139-7.766l-1.434 5.332-1.016-6.684c-0.011-5e-3 -0.021-0.01-0.032-0.013-1.509-0.606-3.111-0.877-4.715-0.799-1.604 0.079-3.179 0.505-4.634 1.256-1.454 0.751-2.761 1.811-3.845 3.12-1.083 1.309-1.923 2.84-2.47 4.508-0.548 1.667-0.793 3.437-0.721 5.209s0.46 3.51 1.14 5.117c0.681 1.606 1.641 3.049 2.827 4.245 1.185 1.196 2.572 2.123 4.082 2.726z" fill="#57B894"/>
<path d="m614.31 300.93c2.822 1.131 5.921 1.075 8.708-0.157 2.787-1.231 5.066-3.552 6.402-6.52 1.337-2.969 1.639-6.376 0.847-9.574s-2.621-5.962-5.139-7.766l-1.434 5.332-1.016-6.684c-0.01-6e-3 -0.021-0.01-0.032-0.013-1.509-0.606-3.111-0.878-4.715-0.799-1.604 0.078-3.179 0.505-4.634 1.256-1.454 0.751-2.761 1.811-3.845 3.12-1.083 1.308-1.923 2.84-2.47 4.507-0.548 1.668-0.793 3.438-0.721 5.209 0.072 1.772 0.46 3.511 1.14 5.117 0.681 1.607 1.641 3.049 2.827 4.246 1.185 1.196 2.572 2.122 4.082 2.726z" stroke="#3F3D56" stroke-miterlimit="10"/>
<path d="m601.01 325.76c0.485 3.049 1.905 5.821 4.021 7.851s4.799 3.195 7.6 3.3c2.801 0.104 5.55-0.859 7.785-2.727 2.234-1.869 3.82-4.529 4.489-7.535 0.67-3.007 0.384-6.176-0.811-8.976-1.194-2.801-3.224-5.062-5.749-6.406-2.526-1.344-5.392-1.687-8.119-0.974-2.728 0.714-5.15 2.442-6.86 4.894l5.445 9.054-7.441-4.805c-0.577 2.045-0.7 4.214-0.36 6.324z" fill="#57B894"/>
<path d="m601.51 323.98c0.485 3.049 1.905 5.821 4.021 7.851 2.115 2.03 4.799 3.195 7.6 3.299 2.801 0.105 5.55-0.858 7.785-2.727 2.234-1.868 3.819-4.528 4.489-7.535 0.67-3.006 0.383-6.175-0.811-8.975-1.195-2.801-3.225-5.063-5.75-6.406-2.525-1.344-5.391-1.687-8.118-0.974-2.728 0.714-5.15 2.442-6.861 4.894l5.446 9.054-7.441-4.805c-0.577 2.045-0.7 4.214-0.36 6.324z" stroke="#3F3D56" stroke-miterlimit="10"/>
<path d="m5.2897 305.06c1.1689 0.469 2.4206 0.632 3.6563 0.476 1.2357-0.156 2.4217-0.627 3.4645-1.375 1.0429-0.749 1.914-1.755 2.5448-2.939 0.6307-1.184 1.0039-2.514 1.09-3.884 0.0862-1.371-0.117-2.745-0.5936-4.014-0.4765-1.269-1.2134-2.398-2.1525-3.299-0.9392-0.901-2.0549-1.548-3.2592-1.891-1.2043-0.344-2.4644-0.373-3.6808-0.087l0.20102 4.566-1.9557-3.913c-1.9194 0.996-3.4022 2.793-4.1225 4.997-0.25583 0.771-0.41136 1.579-0.46194 2.399-0.12344 1.924 0.32421 3.84 1.2751 5.457 0.9509 1.618 2.3532 2.849 3.9945 3.507z" fill="#57B894"/>
<path d="m14.967 358.01c-0.6903-3.883 2.3011-7.326 5.2559-9.563 2.9549-2.238 6.4074-4.436 7.4156-8.233 1.449-5.458-2.867-10.455-6.2263-14.765-2.4922-3.199-4.6325-6.712-6.376-10.467-0.7579-1.475-1.2742-3.086-1.525-4.759-0.2649-2.419 0.4387-4.826 1.1475-7.134 2.3614-7.686 4.8861-15.309 7.5741-22.866" stroke="#3F3D56" stroke-miterlimit="10"/>
<path d="m5.6208 303.88c1.1689 0.47 2.4206 0.633 3.6563 0.477 1.2357-0.156 2.4217-0.627 3.4645-1.376s1.9139-1.755 2.5447-2.939 1.0039-2.513 1.0901-3.884c0.0861-1.371-0.1171-2.744-0.5936-4.013-0.4766-1.269-1.2135-2.399-2.1526-3.299-0.9391-0.901-2.0548-1.549-3.2591-1.892-1.2044-0.343-2.4644-0.373-3.6808-0.086l0.20102 4.566-1.9557-3.913c-1.9194 0.996-3.4022 2.793-4.1225 4.996-0.25583 0.772-0.41136 1.58-0.46194 2.4-0.12345 1.923 0.3242 3.839 1.2751 5.457 0.95091 1.617 2.3533 2.848 3.9945 3.506z" stroke="#3F3D56" stroke-miterlimit="10"/>
<path d="m13.986 278.65c0.4587-1.398 1.2286-2.646 2.2388-3.629s2.2281-1.67 3.5415-1.996l0.6613 4.34 1.2259-4.558c1.7021 0.027 3.3522 0.652 4.712 1.783 1.3597 1.132 2.3588 2.711 2.8531 4.51 0.4942 1.799 0.4579 3.726-0.1036 5.501s-1.6192 3.307-3.0204 4.375-3.0734 1.616-4.7751 1.566c-1.7017-0.051-3.3449-0.697-4.6923-1.846-1.3475-1.149-2.3295-2.742-2.8042-4.547-0.4748-1.806-0.4177-3.732 0.163-5.499z" fill="#57B894"/>
<path d="m14.426 277.08c0.4587-1.398 1.2287-2.646 2.2388-3.629 1.0102-0.983 2.2281-1.669 3.5415-1.996l0.6613 4.341 1.2259-4.559c1.7021 0.028 3.3522 0.653 4.712 1.784s2.3589 2.711 2.8531 4.51 0.4579 3.725-0.1036 5.5c-0.5615 1.776-1.6192 3.308-3.0204 4.375-1.4012 1.068-3.0733 1.617-4.775 1.566-1.7018-0.05-3.345-0.696-4.6924-1.846-1.3475-1.149-2.3295-2.741-2.8042-4.547-0.4747-1.805-0.4176-3.731 0.163-5.499z" stroke="#3F3D56" stroke-miterlimit="10"/>
<path d="m20.002 325.54c1.8538 0.742 3.8902 0.706 5.7211-0.103s3.3282-2.334 4.2066-4.285c0.8783-1.95 1.0763-4.189 0.5562-6.29s-1.722-3.917-3.3765-5.102l-0.942 3.503-0.668-4.392c-0.0066-3e-3 -0.0134-6e-3 -0.0204-8e-3 -0.9916-0.398-2.0445-0.577-3.0985-0.526-1.0541 0.052-2.0887 0.332-3.0446 0.825-0.956 0.494-1.8145 1.19-2.5267 2.05-0.7121 0.86-1.2638 1.867-1.6236 2.962-0.3598 1.096-0.5207 2.259-0.4733 3.423 0.0473 1.164 0.3019 2.307 0.7492 3.362 0.4473 1.056 1.0786 2.004 1.8576 2.79 0.7791 0.785 1.6908 1.394 2.6829 1.791z" fill="#57B894"/>
<path d="m20.385 323.95c1.8538 0.743 3.8902 0.706 5.7211-0.103s3.3282-2.334 4.2066-4.284c0.8783-1.95 1.0763-4.189 0.5562-6.29s-1.722-3.917-3.3765-5.103l-0.942 3.504-0.6679-4.392c-0.0066-4e-3 -0.0135-6e-3 -0.0205-9e-3 -0.9913-0.397-2.0438-0.575-3.0973-0.522-1.0536 0.052-2.0875 0.332-3.0428 0.826-1.9293 0.996-3.4212 2.798-4.1475 5.01-0.7263 2.211-0.6275 4.651 0.2747 6.782s2.5338 3.779 4.5359 4.581z" stroke="#3F3D56" stroke-miterlimit="10"/>
<path d="m11.642 340.27c0.3188 2.003 1.2514 3.825 2.6416 5.158 1.3902 1.334 3.1534 2.1 4.9938 2.168 1.8404 0.069 3.6462-0.564 5.1145-1.792 1.4682-1.227 2.5097-2.975 2.9498-4.95 0.44-1.975 0.2518-4.057-0.533-5.897-0.7849-1.84-2.1187-3.326-3.7777-4.209s-3.5423-1.109-5.3342-0.64c-1.7918 0.469-3.3832 1.605-4.5072 3.216l3.5781 5.948-4.889-3.157c-0.3791 1.344-0.4603 2.769-0.2367 4.155z" fill="#57B894"/>
<path d="m11.972 339.1c0.3187 2.004 1.2514 3.825 2.6416 5.159s3.1533 2.099 4.9938 2.168c1.8404 0.068 3.6462-0.564 5.1144-1.792 1.4683-1.228 2.5098-2.976 2.9498-4.951 0.4401-1.975 0.2519-4.057-0.533-5.897-0.7848-1.84-2.1186-3.326-3.7776-4.209-1.659-0.882-3.5424-1.108-5.3342-0.639-1.7919 0.469-3.3832 1.604-4.5072 3.215l3.578 5.949-4.889-3.158c-0.379 1.344-0.4602 2.769-0.2366 4.155z" stroke="#3F3D56" stroke-miterlimit="10"/>
<path d="m282.46 221.29c5.514 0 9.984-6.39 9.984-14.272s-4.47-14.271-9.984-14.271-9.985 6.389-9.985 14.271 4.471 14.272 9.985 14.272z" fill="#2F2E41"/>
<path d="m336.79 221.61c5.514 0 9.984-6.389 9.984-14.271s-4.47-14.272-9.984-14.272-9.984 6.39-9.984 14.272 4.47 14.271 9.984 14.271z" fill="#2F2E41"/>
<path d="m329.16 249.51c0 6.448-8.152 11.677-18.206 11.677-10.055 0-18.207-5.229-18.207-11.677 0-5.585 6.114-10.256 14.284-11.398 1.3-0.189 2.611-0.282 3.923-0.279 2.198-7e-3 4.39 0.254 6.536 0.779 6.825 1.68 11.67 5.929 11.67 10.898z" fill="#2F2E41"/>
<path d="m284.81 218.04c5.515 0 9.985-6.39 9.985-14.272s-4.47-14.272-9.985-14.272c-5.514 0-9.984 6.39-9.984 14.272s4.47 14.272 9.984 14.272z" stroke="#3F3D56" stroke-miterlimit="10"/>
<path d="m339.14 218.37c5.514 0 9.984-6.39 9.984-14.272s-4.47-14.272-9.984-14.272c-5.515 0-9.985 6.39-9.985 14.272s4.47 14.272 9.985 14.272z" stroke="#3F3D56" stroke-miterlimit="10"/>
<path d="m313.3 257.94c10.056 0 18.207-5.228 18.207-11.677s-8.151-11.677-18.207-11.677c-10.055 0-18.206 5.228-18.206 11.677s8.151 11.677 18.206 11.677z" stroke="#3F3D56" stroke-miterlimit="10"/>
<path d="m317.7 239.58c5e-3 0.816-0.272 1.603-0.775 2.2-0.238 0.287-0.526 0.516-0.848 0.673-0.321 0.157-0.668 0.239-1.02 0.241h-5.873c-0.724-0.028-1.408-0.371-1.903-0.955-0.495-0.583-0.761-1.36-0.74-2.159-3e-3 -0.633 0.165-1.252 0.482-1.778 1.299-0.202 2.611-0.302 3.923-0.298 2.201-8e-3 4.395 0.271 6.537 0.83 0.145 0.396 0.219 0.819 0.217 1.246z" fill="#fff"/>
<path d="m284.81 203.12c1.621 0 2.936-1.452 2.936-3.244 0-1.791-1.315-3.243-2.936-3.243-1.622 0-2.937 1.452-2.937 3.243 0 1.792 1.315 3.244 2.937 3.244z" fill="#fff"/>
<path d="m339.43 203.12c1.621 0 2.936-1.452 2.936-3.244 0-1.791-1.315-3.243-2.936-3.243-1.622 0-2.937 1.452-2.937 3.243 0 1.792 1.315 3.244 2.937 3.244z" fill="#fff"/>
<path d="m342.37 233.61c1.622 0 2.937-1.453 2.937-3.244s-1.315-3.243-2.937-3.243-2.936 1.452-2.936 3.243 1.314 3.244 2.936 3.244z" fill="#E7D040" opacity=".3"/>
<path d="m270.72 233.61c1.622 0 2.936-1.453 2.936-3.244s-1.314-3.243-2.936-3.243-2.937 1.452-2.937 3.243 1.315 3.244 2.937 3.244z" fill="#E7D040" opacity=".3"/>
</g>
<defs>
<clipPath id="a">
<rect width="631" height="379" fill="#fff"/>
</clipPath>
</defs>
</svg>
